HIERARCHY
ROOT hip
{
  OFFSET 0.0 0.0 0.0
  CHANNELS 6 Xposition Yposition Zposition Zrotation Yrotation Xrotation
  JOINT abdomen
  {
    OFFSET 0.0 20.6881 -0.73152
    CHANNELS 3 Zrotation Xrotation Yrotation
    JOINT chest
    {
      OFFSET 0.0 11.7043 -0.48768
      CHANNELS 3 Zrotation Xrotation Yrotation
      JOINT neck
      {
        OFFSET 0.0 22.1894 -2.19456
        CHANNELS 3 Zrotation Xrotation Yrotation
        JOINT head
        {
          OFFSET -0.24384 7.07133 1.2192
          CHANNELS 3 Zrotation Xrotation Yrotation
          JOINT leftEye
          {
            OFFSET 4.14528 8.04674 8.04672
            CHANNELS 3 Zrotation Xrotation Yrotation
            End Site
            {
              OFFSET 1.0 0.0 0.0
            }
          }
          JOINT rightEye
          {
            OFFSET -3.6576 8.04674 8.04672
            CHANNELS 3 Zrotation Xrotation Yrotation
            End Site
            {
              OFFSET 1.0 0.0 0.0
            }
          }
        }
      }
      JOINT rCollar
      {
        OFFSET -2.68224 19.2634 -4.8768
        CHANNELS 3 Zrotation Xrotation Yrotation
        JOINT rShldr
        {
          OFFSET -8.77824 -1.95073 1.46304
          CHANNELS 3 Zrotation Xrotation Yrotation
          JOINT rForeArm
          {
            OFFSET -28.1742 -1.7115 0.48768
            CHANNELS 3 Zrotation Xrotation Yrotation
            JOINT rHand
            {
              OFFSET -22.5879 0.773209 7.07136
              CHANNELS 3 Zrotation Xrotation Yrotation
              JOINT rThumb1
              {
                OFFSET -1.2192 -0.487915 3.41376
                CHANNELS 3 Zrotation Xrotation Yrotation
                JOINT rThumb2
                {
                  OFFSET -3.37035 -0.52449 3.41376
                  CHANNELS 3 Zrotation Xrotation Yrotation
                  End Site
                  {
                    OFFSET -1.78271 -1.18214 1.43049
                  }
                }
              }
              JOINT rIndex1
              {
                OFFSET -7.75947 0.938293 5.60832
                CHANNELS 3 Zrotation Xrotation Yrotation
                JOINT rIndex2
                {
                  OFFSET -2.54057 -0.884171 1.56538
                  CHANNELS 3 Zrotation Xrotation Yrotation
                  End Site
                  {
                    OFFSET -1.62519 -0.234802 1.16502
                  }
                }
              }
              JOINT rMid1
              {
                OFFSET -8.24714 1.18213 3.41376
                CHANNELS 3 Zrotation Xrotation Yrotation
                JOINT rMid2
                {
                  OFFSET -3.10165 -0.590103 1.0647
                  CHANNELS 3 Zrotation Xrotation Yrotation
                  End Site
                  {
                    OFFSET -2.48547 -0.328903 0.83742
                  }
                }
              }
              JOINT rRing1
              {
                OFFSET -8.82822 0.546677 1.51678
                CHANNELS 3 Zrotation Xrotation Yrotation
                JOINT rRing2
                {
                  OFFSET -2.60934 -0.819778 -0.0198488
                  CHANNELS 3 Zrotation Xrotation Yrotation
                  End Site
                  {
                    OFFSET -2.33842 -0.294052 0.168128
                  }
                }
              }
              JOINT rPinky1
              {
                OFFSET -8.27202 -0.0477905 -0.4584
                CHANNELS 3 Zrotation Xrotation Yrotation
                JOINT rPinky2
                {
                  OFFSET -1.82734 -0.647385 -0.700984
                  CHANNELS 3 Zrotation Xrotation Yrotation
                  End Site
                  {
                    OFFSET -1.69225 -0.51767 -0.607171
                  }
                }
              }
            }
          }
        }
      }
      JOINT lCollar
      {
        OFFSET 2.68224 19.2634 -4.8768
        CHANNELS 3 Zrotation Xrotation Yrotation
        JOINT lShldr
        {
          OFFSET 8.77824 -1.95073 1.46304
          CHANNELS 3 Zrotation Xrotation Yrotation
          JOINT lForeArm
          {
            OFFSET 28.1742 -1.7115 0.48768
            CHANNELS 3 Zrotation Xrotation Yrotation
            JOINT lHand
            {
              OFFSET 22.5879 0.773209 7.07136
              CHANNELS 3 Zrotation Xrotation Yrotation
              JOINT lThumb1
              {
                OFFSET 1.2192 -0.487915 3.41376
                CHANNELS 3 Zrotation Xrotation Yrotation
                JOINT lThumb2
                {
                  OFFSET 3.37035 -0.52449 3.41376
                  CHANNELS 3 Zrotation Xrotation Yrotation
                  End Site
                  {
                    OFFSET 1.78271 -1.18214 1.43049
                  }
                }
              }
              JOINT lIndex1
              {
                OFFSET 7.75947 0.938293 5.60832
                CHANNELS 3 Zrotation Xrotation Yrotation
                JOINT lIndex2
                {
                  OFFSET 2.54057 -0.884171 1.56538
                  CHANNELS 3 Zrotation Xrotation Yrotation
                  End Site
                  {
                    OFFSET 1.62519 -0.234802 1.16502
                  }
                }
              }
              JOINT lMid1
              {
                OFFSET 8.24714 1.18213 3.41376
                CHANNELS 3 Zrotation Xrotation Yrotation
                JOINT lMid2
                {
                  OFFSET 3.10165 -0.590103 1.0647
                  CHANNELS 3 Zrotation Xrotation Yrotation
                  End Site
                  {
                    OFFSET 2.48547 -0.328903 0.83742
                  }
                }
              }
              JOINT lRing1
              {
                OFFSET 8.82822 0.546677 1.51678
                CHANNELS 3 Zrotation Xrotation Yrotation
                JOINT lRing2
                {
                  OFFSET 2.60934 -0.819778 -0.0198488
                  CHANNELS 3 Zrotation Xrotation Yrotation
                  End Site
                  {
                    OFFSET 2.33842 -0.294052 0.168128
                  }
                }
              }
              JOINT lPinky1
              {
                OFFSET 8.27202 -0.0477905 -0.4584
                CHANNELS 3 Zrotation Xrotation Yrotation
                JOINT lPinky2
                {
                  OFFSET 1.82734 -0.647385 -0.700984
                  CHANNELS 3 Zrotation Xrotation Yrotation
                  End Site
                  {
                    OFFSET 1.69225 -0.51767 -0.607171
                  }
                }
              }
            }
          }
        }
      }
    }
  }
  JOINT rButtock
  {
    OFFSET -8.77824 4.35084 1.2192
    CHANNELS 3 Zrotation Xrotation Yrotation
    JOINT rThigh
    {
      OFFSET 0.0 -1.70687 -2.19456
      CHANNELS 3 Zrotation Xrotation Yrotation
      JOINT rShin
      {
        OFFSET 0.0 -36.8199 0.73152
        CHANNELS 3 Zrotation Xrotation Yrotation
        JOINT rFoot
        {
          OFFSET 0.73152 -45.1104 -5.12064
          CHANNELS 3 Zrotation Xrotation Yrotation
          End Site
          {
            OFFSET -1.1221 -3.69964 12.103
          }
        }
      }
    }
  }
  JOINT lButtock
  {
    OFFSET 8.77824 4.35084 1.2192
    CHANNELS 3 Zrotation Xrotation Yrotation
    JOINT lThigh
    {
      OFFSET 0.0 -1.70687 -2.19456
      CHANNELS 3 Zrotation Xrotation Yrotation
      JOINT lShin
      {
        OFFSET 0.0 -36.8199 0.73152
        CHANNELS 3 Zrotation Xrotation Yrotation
        JOINT lFoot
        {
          OFFSET -0.73152 -45.1104 -5.12064
          CHANNELS 3 Zrotation Xrotation Yrotation
          End Site
          {
            OFFSET 1.1221 -3.69964 12.103
          }
        }
      }
    }
  }
}
MOTION
Frames: 4
Frame Time: 0.00833333
2.77853 82.8651 17.036999999999992 0.0852 -1.5141 2.9844 3.36923 9.91413 0.32959 4.79759 -2.85636 0.164883 7.5973 1.70641 2.05901 -19.3417 -4.78298 1.36727 -0.0 0.0 0.0 -0.0 0.0 0.0 5.98943e-14 7.75309e-14 -2.97866e-14 74.2181 26.1059 6.40603 -13.8362 -6.82204 25.2268 -0.0518161 -6.48167 -0.914886 -7.45404e-10 8.97241e-10 -1.06243e-09 -1.28615e-09 1.55275e-09 -1.83974e-09 -7.454e-10 8.97246e-10 -1.06244e-09 7.73091 5.47488 0.417314 -7.45405e-10 8.97246e-10 -1.06244e-09 2.90554 0.965183 0.102902 -7.45396e-10 8.97246e-10 -1.06244e-09 10.2786 0.731801 0.0259123 -7.45409e-10 8.97247e-10 -1.06244e-09 2.22167 -0.733487 -0.20892 -5.666e-14 -1.19757e-13 4.46209e-14 -15.2452 -24.1473 14.9785 19.3557 -12.2224 -37.1379 0.00107588 -0.93826 0.131876 8.18126e-10 2.17061e-09 -6.83643e-10 1.41658e-09 3.76094e-09 -1.18643e-09 8.18119e-10 2.17061e-09 -6.8363e-10 -7.73091 5.47488 -0.417314 8.18126e-10 2.17061e-09 -6.83639e-10 -2.90554 0.965183 -0.102902 8.18116e-10 2.17061e-09 -6.83637e-10 -10.2786 0.731801 -0.0259123 8.18128e-10 2.17061e-09 -6.83645e-10 -2.22167 -0.733487 0.20892 -2.03217e-16 0.0 -3.88251e-19 -9.26118 -8.46448 -2.41197 -0.663977 49.9447 0.697673 1.88557 12.9892 -18.2414 2.03217e-16 0.0 3.88251e-19 -0.684427 -23.8538 3.96164 0.197837 31.4979 -0.230915 2.27165 -4.69195 11.9841
2.83751 82.9626 17.35199999999999 0.0555 -1.4668 2.931 3.01247 9.99015 0.2647 4.77122 -2.897 0.135528 7.68685 1.71077 2.09546 -19.2348 -4.75185 1.42707 -0.0 0.0 0.0 -0.0 0.0 0.0 -1.05721e-15 2.36436e-13 -2.11954e-14 74.3177 26.0502 6.10999 -13.9475 -6.91205 25.4486 -0.0521819 -6.50437 -0.918117 -5.61589e-10 8.21621e-10 -1.04888e-09 -9.6812e-10 1.4222e-09 -1.81596e-09 -5.61585e-10 8.21625e-10 -1.04889e-09 7.73091 5.47488 0.417314 -5.6159e-10 8.21625e-10 -1.04889e-09 2.90554 0.965183 0.102902 -5.6158e-10 8.21625e-10 -1.04889e-09 10.2786 0.731801 0.0259123 -5.61595e-10 8.21626e-10 -1.04888e-09 2.22167 -0.733487 -0.20892 -1.19068e-13 -3.05388e-13 9.68353e-14 -15.2283 -24.2911 14.9612 19.3308 -12.1927 -37.0791 0.000961012 -0.886095 0.124543 6.68766e-10 1.96729e-09 -7.97629e-10 1.15845e-09 3.40948e-09 -1.38333e-09 6.68757e-10 1.96729e-09 -7.97614e-10 -7.73091 5.47488 -0.417314 6.68766e-10 1.9673e-09 -7.97625e-10 -2.90554 0.965183 -0.102902 6.68757e-10 1.9673e-09 -7.97621e-10 -10.2786 0.731801 -0.0259123 6.68769e-10 1.9673e-09 -7.97629e-10 -2.22167 -0.733487 0.20892 -2.03217e-16 0.0 -3.88251e-19 -9.47917 -9.26678 -2.86881 -0.708296 51.097 0.736437 1.91995 13.2652 -18.0343 2.03217e-16 0.0 3.88251e-19 -0.836992 -23.4162 3.82903 0.191722 31.1802 -0.21568 2.25614 -4.56203 12.1469
2.8924899999999996 83.0571 17.662999999999997 -0.0021 -1.3913 2.8821 2.71384 10.059 0.192157 4.74709 -2.939 0.106003 7.73574 1.69804 2.12043 -19.0969 -4.70152 1.4764 -0.0 0.0 0.0 -0.0 0.0 0.0 -3.97601e-14 3.29194e-13 -2.85256e-14 74.4284 25.8995 5.78726 -14.0257 -6.97516 25.6057 -0.0528472 -6.54618 -0.92407 -3.51731e-10 7.37739e-10 -9.79811e-10 -6.05383e-10 1.27726e-09 -1.69598e-09 -3.51726e-10 7.37743e-10 -9.79821e-10 7.73091 5.47488 0.417314 -3.51732e-10 7.37742e-10 -9.79814e-10 2.90554 0.965183 0.102902 -3.51722e-10 7.37743e-10 -9.79814e-10 10.2786 0.731801 0.0259123 -3.51738e-10 7.37744e-10 -9.79811e-10 2.22167 -0.733487 -0.20892 -1.49418e-13 -4.11099e-13 1.2588e-13 -15.2289 -24.4086 14.9366 19.3038 -12.1606 -37.0155 0.000916274 -0.864305 0.121479 5.66726e-10 1.73746e-09 -7.97858e-10 9.81925e-10 3.0117e-09 -1.38337e-09 5.66718e-10 1.73746e-09 -7.97842e-10 -7.73091 5.47488 -0.417314 5.66726e-10 1.73746e-09 -7.97855e-10 -2.90554 0.965183 -0.102902 5.66718e-10 1.73746e-09 -7.9785e-10 -10.2786 0.731801 -0.0259123 5.6673e-10 1.73746e-09 -7.97858e-10 -2.22167 -0.733487 0.20892 -2.03217e-16 0.0 -3.88251e-19 -9.66466 -10.0323 -3.32968 -0.749511 52.1398 0.776687 1.87689 13.2684 -17.9091 2.03217e-16 0.0 3.88251e-19 -0.982151 -23.0196 3.65131 0.186451 30.9114 -0.20303 2.2474 -4.41785 12.3653
2.940759999999999 83.1472 17.973 -0.0937 -1.2953 2.8348 2.48876 10.1185 0.109788 4.72431 -2.98474 0.0760907 7.72339 1.66566 2.12896 -18.9039 -4.62265 1.513 -0.0 0.0 0.0 -0.0 0.0 0.0 -4.77897e-14 3.28733e-13 -6.71057e-14 74.5542 25.6275 5.43089 -14.0666 -7.00777 25.6892 -0.0540126 -6.61877 -0.934406 -9.81277e-11 6.42492e-10 -8.03741e-10 -1.67616e-10 1.11255e-09 -1.39066e-09 -9.81228e-11 6.42494e-10 -8.03749e-10 7.73091 5.47488 0.417314 -9.8128e-11 6.42494e-10 -8.03745e-10 2.90554 0.965183 0.102902 -9.81199e-11 6.42494e-10 -8.03745e-10 10.2786 0.731801 0.0259123 -9.81341e-11 6.42495e-10 -8.03742e-10 2.22167 -0.733487 -0.20892 -1.29388e-13 -4.00198e-13 1.20609e-13 -15.2451 -24.4927 14.8982 19.2734 -12.1245 -36.9438 0.00097692 -0.894934 0.125785 5.37185e-10 1.45543e-09 -6.05007e-10 9.3037e-10 2.5229e-09 -1.04926e-09 5.37177e-10 1.45543e-09 -6.04992e-10 -7.73091 5.47488 -0.417314 5.37185e-10 1.45544e-09 -6.05005e-10 -2.90554 0.965183 -0.102902 5.37178e-10 1.45544e-09 -6.05e-10 -10.2786 0.731801 -0.0259123 5.3719e-10 1.45544e-09 -6.05009e-10 -2.22167 -0.733487 0.20892 -2.03217e-16 0.0 -3.88251e-19 -9.80386 -10.7533 -3.80224 -0.786945 53.0687 0.819041 1.73271 12.9056 -17.9037 2.03217e-16 0.0 3.88251e-19 -1.10937 -22.6704 3.42525 0.18201 30.6987 -0.192968 2.2452 -4.25258 12.6493
